<?xml version="1.0" encoding="UTF-8"?>
<svg width="32px" height="32px" viewBox="0 0 32 32" version="1.1" xmlns="http://www.w3.org/2000/svg" xmlns:xlink="http://www.w3.org/1999/xlink">
    <!-- Generator: Sketch 48.2 (47327) - http://www.bohemiancoding.com/sketch -->
    <title>Shape</title>
    <desc>Created with Sketch.</desc>
    <defs></defs>
    <g id="social-media-setup-copy" stroke="none" stroke-width="1" fill="none" fill-rule="evenodd" transform="translate(-638.000000, -1598.000000)">
        <g id="alert-circle-exc" transform="translate(638.000000, 1598.000000)" fill="#FC0035" fill-rule="nonzero">
            <path d="M16,0 C7.2,0 0,7.2 0,16 C0,24.8 7.2,32 16,32 C24.8,32 32,24.8 32,16 C32,7.2 24.8,0 16,0 Z M16,24 C14.8,24 14,23.2 14,22 C14,20.8 14.8,20 16,20 C17.2,20 18,20.8 18,22 C18,23.2 17.2,24 16,24 Z M18,18 L14,18 L14,8 L18,8 L18,18 Z" id="Shape"></path>
        </g>
    </g>
</svg>